<svg width="44" height="44" viewBox="0 0 44 44" fill="none" xmlns="http://www.w3.org/2000/svg">
<rect width="44" height="44" rx="5" fill="#80D8E7"/>
<path d="M27.7778 10C30.9195 10.0182 32.6209 10.1629 33.7308 11.3155C35 12.6337 35 14.7552 35 18.9983V27.9991C35 32.2422 35 34.3637 33.7308 35.6819C32.4616 37 30.4188 37 26.3333 37H17.6667C13.5812 37 11.5384 37 10.2692 35.6819C9 34.3637 9 32.2422 9 27.9991V18.9983C9 14.7552 9 12.6337 10.2692 11.3155C11.3791 10.1629 13.0805 10.0182 16.2222 10" stroke="white" stroke-width="1.5"/>
<path d="M18 23.6L20.2857 26L26 20" stroke="white" stroke-width="1.5" stroke-linecap="round" stroke-linejoin="round"/>
<path d="M16 9.25C16 8.00736 17.0074 7 18.25 7H25.75C26.9926 7 28 8.00736 28 9.25V10.75C28 11.9926 26.9926 13 25.75 13H18.25C17.0074 13 16 11.9926 16 10.75V9.25Z" stroke="white" stroke-width="1.5"/>
</svg>
