<svg width="42" height="47" viewBox="0 0 42 47" fill="none" xmlns="http://www.w3.org/2000/svg">
<g clip-path="url(#clip0_40_497)">
<path d="M27.1081 1L9.19447 18.979L20.1754 30H11.421L0.338867 18.8774L18.1513 1H27.1081Z" fill="url(#paint0_linear_40_497)"/>
<path d="M39.8238 1H30.9101L12.8311 19.2329L17.4641 23.9054L21.8958 19.4361L32.3705 30H41.3849L26.2267 14.7128L39.8238 1Z" fill="url(#paint1_linear_40_497)"/>
<path d="M3.54708 34.2V44H5.24108V34.2H3.54708ZM8.88108 34.2L4.73708 38.834L9.04908 44H11.0791L6.73908 38.792L10.8691 34.2H8.88108ZM12.0712 41.13H17.7272C17.7459 41.046 17.7552 40.9713 17.7552 40.906C17.7552 40.8313 17.7552 40.766 17.7552 40.71C17.7552 40.0287 17.6246 39.4453 17.3632 38.96C17.1019 38.4653 16.7286 38.0873 16.2432 37.826C15.7672 37.5553 15.1979 37.42 14.5352 37.42C13.9286 37.42 13.3919 37.532 12.9252 37.756C12.4586 37.98 12.0806 38.2927 11.7912 38.694C11.5112 39.0953 11.3246 39.562 11.2312 40.094C11.2126 40.206 11.1986 40.318 11.1892 40.43C11.1799 40.542 11.1752 40.6587 11.1752 40.78C11.1752 41.424 11.3106 42.0027 11.5812 42.516C11.8519 43.02 12.2346 43.4167 12.7292 43.706C13.2239 43.9953 13.8026 44.14 14.4652 44.14C15.0532 44.14 15.5432 44.07 15.9352 43.93C16.3366 43.7807 16.6726 43.5753 16.9432 43.314C17.2232 43.0527 17.4706 42.7493 17.6852 42.404L16.3832 41.872C16.2619 42.0773 16.1126 42.2593 15.9352 42.418C15.7579 42.5673 15.5526 42.684 15.3192 42.768C15.0952 42.852 14.8339 42.894 14.5352 42.894C14.1712 42.894 13.8492 42.8193 13.5692 42.67C13.2986 42.5113 13.0839 42.278 12.9252 41.97C12.7759 41.6527 12.7012 41.256 12.7012 40.78L12.7292 40.388C12.7292 40.0147 12.8086 39.6927 12.9672 39.422C13.1259 39.142 13.3406 38.932 13.6112 38.792C13.8819 38.6427 14.1852 38.568 14.5212 38.568C14.8479 38.568 15.1232 38.6333 15.3472 38.764C15.5712 38.8853 15.7439 39.0627 15.8652 39.296C15.9959 39.52 16.0799 39.786 16.1172 40.094H12.0712V41.13ZM20.6821 47.08V37.56H19.1561V47.08H20.6821ZM26.0161 40.78C26.0161 40.0613 25.8714 39.45 25.5821 38.946C25.2928 38.442 24.9101 38.0593 24.4341 37.798C23.9581 37.5273 23.4401 37.392 22.8801 37.392C22.3294 37.392 21.8488 37.532 21.4381 37.812C21.0368 38.0827 20.7241 38.47 20.5001 38.974C20.2854 39.478 20.1781 40.08 20.1781 40.78C20.1781 41.4707 20.2854 42.0727 20.5001 42.586C20.7241 43.09 21.0368 43.482 21.4381 43.762C21.8488 44.0327 22.3294 44.168 22.8801 44.168C23.4401 44.168 23.9581 44.0373 24.4341 43.776C24.9101 43.5053 25.2928 43.118 25.5821 42.614C25.8714 42.1007 26.0161 41.4893 26.0161 40.78ZM24.4481 40.78C24.4481 41.2093 24.3594 41.578 24.1821 41.886C24.0048 42.1847 23.7668 42.4133 23.4681 42.572C23.1788 42.7213 22.8568 42.796 22.5021 42.796C22.2128 42.796 21.9281 42.7213 21.6481 42.572C21.3681 42.4133 21.1348 42.1847 20.9481 41.886C20.7708 41.5873 20.6821 41.2187 20.6821 40.78C20.6821 40.3413 20.7708 39.9727 20.9481 39.674C21.1348 39.3753 21.3681 39.1513 21.6481 39.002C21.9281 38.8433 22.2128 38.764 22.5021 38.764C22.8568 38.764 23.1788 38.8433 23.4681 39.002C23.7668 39.1513 24.0048 39.38 24.1821 39.688C24.3594 39.9867 24.4481 40.3507 24.4481 40.78ZM27.4002 37.56V44H28.8842V37.56H27.4002ZM31.2502 37.56L28.4642 40.22L31.5442 44H33.3782L30.3262 40.22L33.0982 37.56H31.2502ZM35.3399 42.096C35.3399 41.872 35.3912 41.6807 35.4939 41.522C35.6059 41.354 35.7692 41.228 35.9839 41.144C36.2079 41.0507 36.4785 41.004 36.7959 41.004C37.1879 41.004 37.5332 41.0553 37.8319 41.158C38.1305 41.2513 38.4245 41.4053 38.7139 41.62V40.822C38.6392 40.7287 38.5039 40.6213 38.3079 40.5C38.1119 40.3787 37.8645 40.2713 37.5659 40.178C37.2765 40.0847 36.9452 40.038 36.5719 40.038C36.0119 40.038 35.5219 40.122 35.1019 40.29C34.6912 40.458 34.3739 40.7007 34.1499 41.018C33.9259 41.3353 33.8139 41.7133 33.8139 42.152C33.8139 42.5907 33.9119 42.9593 34.1079 43.258C34.3132 43.5473 34.5839 43.7667 34.9199 43.916C35.2652 44.0653 35.6479 44.14 36.0679 44.14C36.5159 44.14 36.9219 44.0653 37.2859 43.916C37.6499 43.7573 37.9392 43.5333 38.1539 43.244C38.3685 42.9453 38.4759 42.5907 38.4759 42.18L38.2519 41.452C38.2519 41.8253 38.1772 42.124 38.0279 42.348C37.8785 42.572 37.6732 42.7353 37.4119 42.838C37.1505 42.9407 36.8565 42.992 36.5299 42.992C36.3059 42.992 36.1052 42.9593 35.9279 42.894C35.7505 42.8193 35.6059 42.7167 35.4939 42.586C35.3912 42.4553 35.3399 42.292 35.3399 42.096ZM35.0039 39.254C35.1065 39.1887 35.2512 39.1093 35.4379 39.016C35.6339 38.9133 35.8625 38.8247 36.1239 38.75C36.3852 38.6753 36.6699 38.638 36.9779 38.638C37.3325 38.638 37.6312 38.722 37.8739 38.89C38.1259 39.0487 38.2519 39.2773 38.2519 39.576V44H39.7359V39.408C39.7359 38.9787 39.6192 38.6193 39.3859 38.33C39.1619 38.0313 38.8492 37.8027 38.4479 37.644C38.0465 37.4853 37.5799 37.406 37.0479 37.406C36.4692 37.406 35.9559 37.49 35.5079 37.658C35.0599 37.826 34.6912 37.9987 34.4019 38.176L35.0039 39.254Z" fill="#303030"/>
</g>
<defs>
<linearGradient id="paint0_linear_40_497" x1="26.3681" y1="28.6265" x2="-2.14042" y2="25.4541" gradientUnits="userSpaceOnUse">
<stop stop-color="#90C1F3"/>
<stop offset="0.471875" stop-color="#72D5E3"/>
<stop offset="1" stop-color="#DBE8FF"/>
</linearGradient>
<linearGradient id="paint1_linear_40_497" x1="40.701" y1="28.6217" x2="10.228" y2="25.0036" gradientUnits="userSpaceOnUse">
<stop stop-color="#90C1F3"/>
<stop offset="0.471875" stop-color="#72D5E3"/>
<stop offset="1" stop-color="#DBE8FF"/>
</linearGradient>
<clipPath id="clip0_40_497">
<rect width="42" height="47" fill="white"/>
</clipPath>
</defs>
</svg>
