<svg width="44" height="44" viewBox="0 0 44 44" fill="none" xmlns="http://www.w3.org/2000/svg">
<rect width="44" height="44" rx="5" fill="#80D8E7"/>
<path d="M20.5766 13.7042C21.2099 12.5681 21.5266 12 22 12C22.4734 12 22.7901 12.5681 23.4234 13.7042L23.5873 13.9981C23.7672 14.321 23.8572 14.4824 23.9975 14.5889C24.1378 14.6954 24.3126 14.735 24.6621 14.814L24.9802 14.886C26.2101 15.1643 26.825 15.3034 26.9713 15.7739C27.1176 16.2443 26.6984 16.7345 25.86 17.715L25.643 17.9686C25.4048 18.2472 25.2857 18.3865 25.2321 18.5589C25.1785 18.7312 25.1965 18.9171 25.2325 19.2888L25.2653 19.6272C25.3921 20.9353 25.4554 21.5894 25.0724 21.8801C24.6894 22.1709 24.1137 21.9058 22.9622 21.3756L22.6643 21.2384C22.337 21.0878 22.1734 21.0124 22 21.0124C21.8266 21.0124 21.663 21.0878 21.3357 21.2384L21.0378 21.3756C19.8863 21.9058 19.3106 22.1709 18.9276 21.8801C18.5446 21.5894 18.6079 20.9353 18.7347 19.6272L18.7675 19.2888C18.8035 18.9171 18.8215 18.7312 18.7679 18.5589C18.7143 18.3865 18.5952 18.2472 18.357 17.9686L18.14 17.715C17.3016 16.7345 16.8824 16.2443 17.0287 15.7739C17.175 15.3034 17.7899 15.1643 19.0198 14.886L19.3379 14.814C19.6874 14.735 19.8622 14.6954 20.0025 14.5889C20.1428 14.4824 20.2328 14.321 20.4127 13.9981L20.5766 13.7042Z" stroke="white" stroke-width="1.5"/>
<path d="M33 17C33 23.0751 28.0751 28 22 28C15.9249 28 11 23.0751 11 17C11 10.9249 15.9249 6 22 6C28.0751 6 33 10.9249 33 17Z" stroke="white" stroke-width="1.5"/>
<path d="M14.2519 26L13.1904 29.6504C12.1432 33.2519 11.6195 35.0526 12.3183 36.0384C12.5632 36.3839 12.8917 36.6612 13.2729 36.8442C14.3606 37.3664 16.04 36.5413 19.3989 34.8911C20.5165 34.342 21.0753 34.0675 21.669 34.0078C21.8891 33.9857 22.1109 33.9857 22.331 34.0078C22.9247 34.0675 23.4835 34.342 24.6011 34.8911C27.96 36.5413 29.6394 37.3664 30.7271 36.8442C31.1083 36.6612 31.4368 36.3839 31.6817 36.0384C32.3805 35.0526 31.8568 33.2519 30.8096 29.6504L29.7481 26" stroke="white" stroke-width="1.5" stroke-linecap="round"/>
</svg>
